<svg xmlns="http://www.w3.org/2000/svg" width="53" height="63" viewBox="0 0 53 63">
    <g fill="none" fill-rule="nonzero">
        <path fill="#E4EBFC" d="M50.147 41.467c-1.669 4.524-4.193 8.457-7.503 11.69-3.768 3.679-8.702 6.602-14.664 8.688a4.568 4.568 0 0 1-1.425.252H26.5a4.553 4.553 0 0 1-1.476-.251c-5.97-2.082-10.91-5.004-14.681-8.684C7.032 49.93 4.509 46 2.842 41.476-.188 33.25-.016 24.19.122 16.91l.003-.112a59.73 59.73 0 0 0 .056-1.93c.05-3.424 2.773-6.257 6.197-6.448 7.14-.398 12.663-2.726 17.382-7.326l.041-.038a3.978 3.978 0 0 1 5.4 0l.04.038c4.72 4.6 10.244 6.928 17.383 7.326 3.425.191 6.147 3.024 6.197 6.448.01.702.028 1.332.056 1.93l.002.047c.138 7.295.31 16.373-2.732 24.621z"/>
        <path fill="#D6E0FC" d="M50.147 41.467c-1.669 4.524-4.193 8.457-7.503 11.69-3.768 3.679-8.702 6.602-14.664 8.688a4.568 4.568 0 0 1-1.425.252V0A3.984 3.984 0 0 1 29.2 1.057l.04.038c4.72 4.6 10.244 6.928 17.383 7.326 3.425.191 6.147 3.024 6.197 6.448.01.702.028 1.332.056 1.93l.002.047c.138 7.295.31 16.373-2.732 24.621z"/>
        <path fill="#FFF" d="M41.976 31.048c0 8.515-6.914 15.446-15.422 15.476H26.5c-8.533 0-15.476-6.943-15.476-15.476 0-8.533 6.943-15.476 15.476-15.476h.054c8.508.03 15.422 6.962 15.422 15.476z"/>
        <path fill="#F5F5F5" d="M41.976 31.048c0 8.515-6.914 15.446-15.422 15.476V15.572c8.508.03 15.422 6.962 15.422 15.476z"/>
        <path fill="#8E9BF2" d="M33.524 28.82l-6.97 6.97-1.506 1.506a1.817 1.817 0 0 1-1.288.534c-.467 0-.933-.178-1.29-.534l-3.237-3.24a1.821 1.821 0 1 1 2.576-2.575l1.95 1.95 7.19-7.188a1.82 1.82 0 1 1 2.575 2.577z"/>
        <path fill="#6A77CA" d="M33.524 28.82l-6.97 6.97v-5.154l4.394-4.393a1.82 1.82 0 1 1 2.576 2.577z"/>
    </g>
</svg>
