<svg xmlns="http://www.w3.org/2000/svg" width="230" height="127" viewBox="0 0 230 127">
    <g fill="none" fill-rule="evenodd">
        <g fill="#00AEEF">
            <path d="M8.43 12.424c2.615 0 4.32-1.787 4.32-4.502 0-2.758-1.705-4.502-4.32-4.502-2.663 0-4.344 1.744-4.344 4.502 0 2.715 1.681 4.502 4.344 4.502m0 3.443c-4.647 0-8.43-3.29-8.43-7.945C0 3.266 3.783 0 8.43 0c4.67 0 8.382 3.266 8.382 7.922s-3.736 7.945-8.382 7.945M33.253.221L33.253 15.712 29.261 15.712 22.582 6.157 22.582 15.712 18.589 15.712 18.589.221 22.582.221 29.261 9.82 29.261.221zM40.144.221L40.144 12.799 45.374 12.799 45.374 15.712 36.151 15.712 36.151.221zM47.289 15.712L51.283 15.712 51.283.22 47.289.22zM68.842.221L68.842 15.712 64.85 15.712 58.171 6.157 58.171 15.712 54.179 15.712 54.179.221 58.171.221 64.85 9.82 64.85.221zM81.781 3.244L75.733 3.244 75.733 6.377 81.08 6.377 81.08 9.29 75.733 9.29 75.733 12.689 81.781 12.689 81.781 15.712 71.74 15.712 71.74.22 81.781.22z" transform="translate(147.617 74.07)"/>
        </g>
        <g fill="#2E3191">
            <path d="M48.061 26.734c-2.637 1.38-6.33 2.3-9.981 2.3-9.414 0-16.027-6.02-16.027-14.186C22.053 6.642 28.747.43 38.12.43c3.612 0 6.736.92 9.008 2.109v6.135c-2.475-1.611-5.68-2.76-8.886-2.76-5.924 0-9.738 3.948-9.738 8.895 0 4.83 3.652 8.895 9.698 8.895 1.338 0 2.637-.23 3.611-.614v-4.178H36.7V13.85h11.361v12.883zM52.007.853L70.144.853 70.144 6.182 58.459 6.182 58.459 11.627 68.521 11.627 68.521 16.688 58.459 16.688 58.459 23.283 70.591 23.283 70.591 28.613 52.007 28.613zM83.733 6.182L74.239 6.182 74.239.853 99.679.853 99.679 6.182 90.185 6.182 90.185 28.613 83.733 28.613zM102.965.853L109.417.853 109.417 11.589 122.116 11.589 122.116.853 128.568.853 128.568 28.613 122.116 28.613 122.116 16.918 109.417 16.918 109.417 28.613 102.965 28.613zM132.383.853L150.52.853 150.52 6.182 138.834 6.182 138.834 11.627 148.896 11.627 148.896 16.688 138.834 16.688 138.834 23.283 150.966 23.283 150.966 28.613 132.383 28.613zM164.072 13.084c1.746 0 3.084-.192 4.058-.652 1.096-.537 1.664-1.457 1.664-2.799 0-1.303-.487-2.147-1.664-2.722-1.014-.498-2.597-.729-4.828-.729h-2.476v6.902h3.246zM154.375.853h9.21c3.49 0 6.777.46 9.13 1.84 2.15 1.265 3.53 3.336 3.53 6.518 0 3.567-2.07 6.48-5.965 7.67l8.278 11.732h-7.425l-7.426-10.966h-2.88v10.966h-6.452V.853z" transform="translate(50.096 41.128)"/>
            <path fill-rule="nonzero" d="M.545 24.37l10.005-10.6c.865-.836 1.534-1.674 2.005-2.51.47-.838.706-1.688.706-2.55 0-.368-.076-.733-.23-1.095-.152-.361-.371-.685-.658-.97-.286-.285-.636-.514-1.05-.685-.414-.171-.881-.257-1.403-.257-.624 0-1.168.098-1.633.295-.464.197-.853.466-1.164.809-.312.342-.551.742-.716 1.198-.166.457-.255.94-.268 1.447H.392c0-1.497.248-2.832.745-4.006.496-1.173 1.18-2.163 2.052-2.968.872-.806 1.894-1.418 3.065-1.836C7.424.223 8.679.014 10.015.014c1.26 0 2.46.19 3.6.57 1.139.381 2.144.94 3.016 1.675.872.736 1.562 1.643 2.072 2.721.509 1.078.763 2.321.763 3.73 0 1.128-.232 2.172-.697 3.13-.464.957-1.091 1.874-1.88 2.75L8.64 23.474h10.788v5.842H.545V24.37z" transform="translate(50.096 41.128)"/>
        </g>
        <path fill="#2B3990" d="M10.661 95.508L0 95.508 18.393 63.511 0 31.412 10.661 31.412 29.054 63.511z"/>
        <path fill="#00AEEF" d="M24.953 95.508L14.292 95.508 32.685 63.511 14.292 31.412 24.953 31.412 43.346 63.511z"/>
        <path fill="#2B3990" d="M55.284 0L38.972 28.377 49.633 28.377 60.678 9.162z"/>
        <path fill="#00AEEF" d="M62.337 11.981L52.913 28.376 63.574 28.376 67.732 21.143z"/>
        <path fill="#2B3990" d="M55.284 127.069L38.972 98.693 49.633 98.693 60.678 117.907z"/>
        <path fill="#00AEEF" d="M62.337 115.088L52.913 98.693 63.574 98.693 67.732 105.926z"/>
    </g>
</svg>
