<svg width="243" height="120" viewBox="0 0 243 120" fill="none" xmlns="http://www.w3.org/2000/svg">
<path d="M24.8825 73.3055H17.8586V53.1876H10.6597V66.707C10.6597 71.1064 8.65012 73.3061 4.63218 73.3061H0V67.1042H2.39106C3.17156 67.1042 3.56182 66.6662 3.56182 65.7891V46.8375H24.8838V73.3055H24.8825ZM57.7137 61.9192C57.7137 69.6747 53.6694 73.5527 45.5827 73.5527H38.9328C35.0805 73.5527 32.2245 72.7427 30.3642 71.1215C28.4042 69.435 27.4248 66.7397 27.4248 63.0348V46.8369H34.2002V63.9031C34.2002 66.5822 35.4952 67.9217 38.0858 67.9217H39.3061V46.8369H45.8324V67.9217H46.7541C49.5429 67.9217 50.9383 66.4994 50.9383 63.6553V46.8369H57.7137V61.9192ZM79.7277 73.3055H72.6292V54.7003C72.6292 53.692 72.1561 53.1869 71.21 53.1869H60.3997V46.8369H72.6787C77.3787 46.8369 79.7277 49.4087 79.7277 54.5516V73.3055ZM103.708 73.3055H82.2869V67.1035H94.2673V53.1876H82.6357V46.8375H101.267V67.1035H103.708V73.3055Z" fill="#2BACE2"/>
<path d="M128.968 52.5306L125.43 53.687C124.656 53.9505 124.269 54.4292 124.269 55.1244V72.375L116.599 73.756V56.0548L119.401 53.6876C119.646 53.4812 119.626 53.377 119.344 53.377H105.305V46.584H128.968V52.5306H128.968ZM156.475 72.3744L148.776 73.7554V54.4191C148.776 53.7246 148.389 53.3764 147.615 53.3764H139.832V72.3744L132.133 73.7554V55.9419L134.964 53.7434C135.266 53.4994 135.247 53.377 134.907 53.377H130.916V46.584H147.899C150.918 46.584 153.102 47.2842 154.451 48.684C155.799 50.0844 156.475 52.269 156.475 55.2379V72.3744ZM169.752 61.8615L162.081 63.27V53.9116C162.081 53.5552 161.93 53.3758 161.628 53.3758H159.307V46.5828H165.676C168.392 46.5828 169.751 48.002 169.751 50.8391V61.8615H169.752ZM194.543 66.9624L192.93 73.3055H170.315L172.24 66.4836H184.354V54.3633C184.354 53.7058 184.024 53.3764 183.363 53.3764H172.297V46.5834H184.58C189.599 46.5834 192.109 49.0824 192.109 54.081V64.3699L189.732 66.3707V66.5401H194.373L194.543 66.9624Z" fill="#2B3C90"/>
<path d="M232.459 90.1942H242.492L225.182 59.9768L242.492 29.6646H232.459L215.148 59.9768L232.459 90.1942Z" fill="#2B3C90"/>
<path d="M219.008 90.1942H229.042L211.731 59.9768L229.042 29.6646H219.008L201.698 59.9768L219.008 90.1942Z" fill="#2BACE2"/>
<path d="M190.463 0L205.815 26.798H195.781L185.386 8.65263L190.463 0Z" fill="#2B3C90"/>
<path d="M183.824 11.3147L192.694 26.798H182.661L178.748 19.9674L183.824 11.3147Z" fill="#2BACE2"/>
<path d="M190.463 120L205.815 93.2014H195.781L185.386 111.346L190.463 120Z" fill="#2B3C90"/>
<path d="M183.824 108.685L192.694 93.2014H182.661L178.748 100.032L183.824 108.685Z" fill="#2BACE2"/>
<path d="M8.20657 84.6861C8.12626 85.6385 7.90604 86.3488 7.54779 86.8149C7.19581 87.2893 6.58094 87.6544 5.70382 87.9091L4.15537 88.3615L2.90745 86.0677L4.82482 85.5494C5.38008 85.4026 5.67371 85.013 5.70571 84.3793L5.85252 81.4631H1.17078C1.06788 81.4631 1.00953 81.3991 0.995101 81.2705L0.506348 76.8861H3.14587L3.39872 79.1492H8.45691C8.61125 79.1492 8.67901 79.2458 8.66207 79.4372L8.20657 84.6861ZM18.8029 88.4374H18.6875C18.3474 88.2134 17.9572 87.9298 17.518 87.5879C17.0788 87.246 16.5819 86.8407 16.0298 86.3732C15.4977 85.9259 15.0284 85.5181 14.6212 85.1504C14.2147 84.7827 13.8646 84.4458 13.5741 84.1384L12.8996 83.447C12.7377 84.2469 12.7076 85.1015 12.8093 86.0093L13.9279 86.106L13.7711 88.2442H10.6685C10.5399 88.2442 10.4659 88.1582 10.4471 87.9857C10.2181 85.9322 10.2438 84.3486 10.5255 83.2362L11.9597 82.4494L11.2708 81.7203C11.1184 81.5597 10.9358 81.4738 10.7219 81.4619L9.9376 81.4223L9.68475 79.148H12.1222C12.2509 79.148 12.4008 79.2609 12.574 79.4849C12.867 79.8682 13.2717 80.3413 13.7868 80.9053C14.3031 81.4675 14.9337 82.1269 15.679 82.8804C15.8484 82.2091 15.8666 80.9649 15.7349 79.148H18.365C18.4547 79.148 18.4986 79.1931 18.4955 79.2829C18.5237 81.0929 18.4108 82.3258 18.1561 82.9777L16.7996 83.8598C17.5293 84.5312 18.4384 85.2602 19.5288 86.047L18.8029 88.4374ZM27.4079 87.9286L24.8405 88.3991L24.1184 81.923C24.0845 81.6156 23.9226 81.4625 23.634 81.4625H19.6066L19.3494 79.1486H23.6076C25.4892 79.1486 26.5383 80.1179 26.7541 82.0566L27.4079 87.9286ZM39.2402 84.1578C39.0953 85.6799 38.641 86.7603 37.8775 87.4003C37.1146 88.0403 35.9231 88.3609 34.3044 88.3609H34.1695C32.6794 88.3609 31.5977 88.0754 30.9239 87.5057C30.2432 86.9298 29.7092 85.8945 29.3246 84.3981L28.5598 81.423H27.731L27.4769 79.1486H30.4734C30.634 79.1486 30.7237 79.2333 30.7419 79.3983L30.7727 79.6762C30.8135 80.0339 30.8693 80.3601 30.9402 80.6556L31.5475 83.4288C31.577 83.5819 31.6354 83.6434 31.7226 83.6101C32.4585 83.3617 32.8162 82.8491 32.7942 82.0761L32.7791 81.423H31.9886L31.7358 79.1486H34.8766C35.0498 79.1486 35.1351 79.2452 35.1294 79.4366L35.0592 81.9989C35.0071 83.777 34.204 84.784 32.6499 85.0218L31.8719 84.4358L31.7972 84.454C31.9911 85.0431 32.2458 85.4553 32.5614 85.6919C32.8833 85.9297 33.3394 86.047 33.9311 86.047H34.2009C35.0284 86.047 35.6276 85.9158 35.9965 85.6536C36.4426 85.3349 36.6986 84.7495 36.7638 83.8975L37.0085 81.4223H36.2569L36.004 79.148H39.3952C39.4717 79.148 39.5395 79.1894 39.5966 79.2741C39.6537 79.3563 39.6807 79.4397 39.6769 79.5225L39.2402 84.1578ZM44.5381 84.3492L41.9814 84.8298L41.6256 81.6438C41.6125 81.5227 41.5541 81.4625 41.4519 81.4625H40.6619L40.4041 79.1486H42.5718C43.4972 79.1486 44.013 79.6317 44.1209 80.5985L44.5381 84.3492ZM54.0597 90.8366L51.5024 91.4885L50.4025 81.6237C50.3906 81.5158 50.3329 81.4619 50.23 81.4619H49.3817L49.1245 79.148H51.5137C52.3425 79.148 52.8017 79.5545 52.8921 80.367L54.0597 90.8366ZM62.6182 83.5919C62.5304 84.762 62.1677 85.7157 61.5309 86.451C60.9041 87.1738 59.9756 87.7661 58.7421 88.2266L54.5855 89.7424L54.753 87.1801L56.8184 86.441L56.8517 86.3933L55.0686 81.5478C55.0479 81.4782 54.992 81.4424 54.9029 81.4424H53.9775L53.7221 79.1486H56.8147C56.9558 79.1486 57.0512 79.2258 57.1014 79.3801L58.8067 84.7426L58.21 85.7891C58.1874 85.8211 58.1849 85.8531 58.2019 85.8845C58.2351 85.8977 58.2665 85.8908 58.2953 85.865L58.5425 85.7508C59.5 85.2891 60.0038 84.6209 60.0534 83.745L60.1945 81.4619H59.2013L58.9441 79.148H62.6628C62.861 79.148 62.952 79.2741 62.9357 79.5232L62.6182 83.5919ZM74.0057 87.9863C74.0252 88.1588 73.948 88.2448 73.7742 88.2448H69.0153L69.2192 85.924H71.1454L70.7608 82.4695C70.693 81.8552 70.4715 81.5127 70.097 81.4424C69.9846 81.4167 69.8065 81.4029 69.5624 81.4029H68.9839C68.5284 81.4029 68.2292 81.5415 68.0861 81.817C67.9851 82.0083 67.9148 82.3816 67.874 82.9394L67.5139 88.0051L64.9271 88.3985L65.36 83.5518C65.4089 82.9513 65.3619 82.4707 65.2188 82.1131L65.0783 81.7197C65.0011 81.5472 64.8248 81.4612 64.5481 81.4612H63.9609L63.703 79.1473H65.8124C66.3074 79.1473 66.6613 79.3556 66.8739 79.771L67.3313 80.7598C67.3865 80.8552 67.4399 80.8432 67.4913 80.7215C67.5459 80.4655 67.7122 80.0841 67.9895 79.5796C68.2499 79.2659 68.9777 79.1091 70.1722 79.1091C71.3612 79.1091 72.1919 79.3588 72.6643 79.8576C72.9937 80.2152 73.202 80.7855 73.288 81.566L74.0057 87.9863ZM81.3308 84.6861C81.2505 85.6385 81.0315 86.3488 80.672 86.8149C80.32 87.2893 79.7051 87.6544 78.8286 87.9091L77.2789 88.3615L76.031 86.0677L77.9484 85.5494C78.5036 85.4026 78.7973 85.013 78.8293 84.3793L78.9761 81.4631H74.2943C74.1914 81.4631 74.1331 81.3991 74.1187 81.2705L73.6299 76.8861H76.2694L76.5223 79.1492H81.5805C81.7348 79.1492 81.8026 79.2458 81.7863 79.4372L81.3308 84.6861Z" fill="#2B3C90"/>
</svg>
