<svg xmlns="http://www.w3.org/2000/svg" width="26" height="26" viewBox="0 0 26 26">
    <g fill="none" fill-rule="nonzero" opacity=".753">
        <path fill="#B6C5EE" d="M11.624 23.246a4.601 4.601 0 0 1-4.595-4.595V3.264L1.805 4.46A2.433 2.433 0 0 0 .082 7.433L4.56 24.154a2.457 2.457 0 0 0 2.357 1.797c.2 0 .404-.024.605-.077l10.898-2.628h-6.796z"/>
        <path fill="#D9E1F7" d="M25.95 2.973v15.678a2.972 2.972 0 0 1-2.973 2.973H11.624a2.974 2.974 0 0 1-2.974-2.973V2.973A2.972 2.972 0 0 1 11.624 0h11.353a2.972 2.972 0 0 1 2.973 2.973z"/>
        <path fill="#6876D1" d="M16.22 7.568a2.162 2.162 0 1 1-4.326 0 2.162 2.162 0 0 1 4.325 0z"/>
        <path fill="#4250AB" d="M25.95 12.91v5.741a2.972 2.972 0 0 1-2.973 2.973H11.624A2.974 2.974 0 0 1 9.029 20.1L19.744 9.385a1.906 1.906 0 0 1 2.681 0l3.525 3.525z"/>
        <path fill="#6876D1" d="M22.771 21.624H11.624a2.974 2.974 0 0 1-2.974-2.973v-2.498l2.985-2.984a1.905 1.905 0 0 1 2.681 0l8.455 8.455z"/>
    </g>
</svg>
