<svg xmlns="http://www.w3.org/2000/svg" width="27" height="31" viewBox="0 0 27 31">
    <defs>
        <linearGradient id="a" x1="0%" y1="57.027%" y2="50%">
            <stop offset="0%" stop-color="#6876D1"/>
            <stop offset="100%" stop-color="#4250AB"/>
        </linearGradient>
    </defs>
    <g fill="none" fill-rule="nonzero">
        <path fill="#D9E1F7" d="M5.682 0a1.9 1.9 0 0 0-1.894 1.894V28.41a1.9 1.9 0 0 0 1.894 1.895h18.94a1.9 1.9 0 0 0 1.894-1.895V7.576L18.94 0H5.682z"/>
        <path fill="#B6C5EE" d="M20.834 7.576h5.682L18.94 0v5.682a1.9 1.9 0 0 0 1.894 1.894z"/>
        <path fill="#D9E1F7" d="M26.516 13.258l-5.682-5.682h5.682z"/>
        <path fill="url(#a)" d="M22.728 24.622a.95.95 0 0 1-.947.947H.947A.95.95 0 0 1 0 24.622v-9.47a.95.95 0 0 1 .947-.947h20.834a.95.95 0 0 1 .947.947v9.47z"/>
        <g fill="#FFF">
            <path d="M3.585 22.728c-.25 0-.522-.137-.522-.47v-4.3c0-.272.272-.47.522-.47H5.32c3.46 0 3.384 5.24.068 5.24H3.585zm.478-4.316v3.392h1.256c2.045 0 2.135-3.392 0-3.392H4.063zM11.6 22.804c-1.4.06-2.854-.871-2.854-2.726 0-1.863 1.453-2.779 2.855-2.779 1.325.067 2.71.984 2.71 2.779s-1.385 2.726-2.71 2.726zm-.082-4.52c-.849 0-1.772.599-1.772 1.795 0 1.19.924 1.795 1.772 1.795.87 0 1.802-.606 1.802-1.795 0-1.197-.931-1.795-1.802-1.795zM15.202 20.07c0-1.461.917-2.718 2.659-2.718.659 0 1.182.197 1.734.674a.516.516 0 0 1 .022.734.514.514 0 0 1-.697-.022c-.31-.326-.627-.416-1.06-.416-1.165 0-1.725.826-1.725 1.75 0 .938.552 1.801 1.726 1.801.432 0 .833-.175 1.182-.485a.508.508 0 0 1 .696.091c.12.167.18.447-.084.711-.53.494-1.165.592-1.795.592-1.832 0-2.658-1.25-2.658-2.712z"/>
        </g>
        <path fill="#B6C5EE" d="M21.781 25.57H3.788v.946h17.993a.95.95 0 0 0 .947-.947v-.947a.95.95 0 0 1-.947.947z"/>
    </g>
</svg>
