<svg xmlns="http://www.w3.org/2000/svg" width="26" height="31" viewBox="0 0 26 31">
    <defs>
        <linearGradient id="a" x1="0%" y1="57.578%" y2="50%">
            <stop offset="0%" stop-color="#6876D1"/>
            <stop offset="100%" stop-color="#4250AB"/>
        </linearGradient>
    </defs>
    <g fill="none" fill-rule="nonzero">
        <path fill="#D9E1F7" d="M5.472 0C4.469 0 3.648.852 3.648 1.894V28.41c0 1.042.82 1.895 1.824 1.895H23.71c1.004 0 1.824-.853 1.824-1.895V7.576L18.24 0H5.472z"/>
        <path fill="#B6C5EE" d="M20.063 7.576h5.471L18.24 0v5.682c0 1.042.82 1.894 1.824 1.894z"/>
        <path fill="#D9E1F7" d="M25.534 13.258l-5.471-5.682h5.471z"/>
        <path fill="url(#a)" d="M21.887 24.622c0 .521-.41.947-.912.947H.912c-.502 0-.912-.426-.912-.947v-9.47c0-.52.41-.947.912-.947h20.063c.501 0 .912.426.912.947v9.47z"/>
        <path fill="#B6C5EE" d="M20.975 25.57H3.648v.946h17.327c.501 0 .912-.426.912-.947v-.947c0 .521-.41.947-.912.947z"/>
        <g fill="#FFF">
            <path d="M2.346 17.325c0-.292.221-.61.578-.61h1.968c1.108 0 2.106.77 2.106 2.246 0 1.398-.998 2.177-2.106 2.177H3.47v1.168c0 .39-.239.61-.546.61a.585.585 0 0 1-.578-.61v-4.98zm1.124.504v2.204h1.422c.571 0 1.023-.524 1.023-1.072 0-.619-.452-1.132-1.023-1.132H3.47zM8.666 22.916c-.281 0-.588-.16-.588-.548v-5.025c0-.318.307-.549.588-.549h1.951c3.893 0 3.808 6.122.077 6.122H8.666zm.537-5.042v3.963h1.414c2.3 0 2.403-3.963 0-3.963H9.203zM15.806 17.945v1.406h2.173c.306 0 .613.319.613.627 0 .293-.307.532-.613.532h-2.173v1.857c0 .31-.212.548-.51.548-.375 0-.604-.238-.604-.548v-5.025c0-.318.23-.549.604-.549h2.99c.376 0 .597.231.597.549a.6.6 0 0 1-.596.602h-2.48z"/>
        </g>
    </g>
</svg>
