<svg xmlns="http://www.w3.org/2000/svg" width="26" height="31" viewBox="0 0 26 31">
    <defs>
        <linearGradient id="a" x1="0%" y1="57.578%" y2="50%">
            <stop offset="0%" stop-color="#6876D1"/>
            <stop offset="100%" stop-color="#4250AB"/>
        </linearGradient>
    </defs>
    <g fill="none" fill-rule="nonzero">
        <path fill="#D9E1F7" d="M5.472 0C4.469 0 3.648.852 3.648 1.894V28.41c0 1.042.82 1.895 1.824 1.895H23.71c1.004 0 1.824-.853 1.824-1.895V7.576L18.24 0H5.472z"/>
        <path fill="#B6C5EE" d="M20.063 7.576h5.471L18.24 0v5.682c0 1.042.82 1.894 1.824 1.894z"/>
        <path fill="#D9E1F7" d="M25.534 13.258l-5.471-5.682h5.471z"/>
        <path fill="url(#a)" d="M21.887 24.622c0 .521-.41.947-.912.947H.912c-.502 0-.912-.426-.912-.947v-9.47c0-.52.41-.947.912-.947h20.063c.501 0 .912.426.912.947v9.47z"/>
        <path fill="#B6C5EE" d="M20.975 25.57H3.648v.946h17.327c.501 0 .912-.426.912-.947v-.947c0 .521-.41.947-.912.947z"/>
        <g fill="#FFF">
            <path d="M5.083 19.281L6.66 17.23c.471-.64 1.387.177.87.79a54.69 54.69 0 0 0-1.658 2.136l1.849 2.39c.498.707-.498 1.384-.988.687l-1.668-2.221-1.64 2.27c-.463.685-1.487-.086-.97-.726l1.82-2.4c-.57-.744-1.123-1.468-1.675-2.137-.57-.706.49-1.43.906-.77l1.577 2.032zM8.84 17.586c0-.31.253-.574.57-.574.29 0 .536.265.536.574v4.716h2.465a.619.619 0 0 1 0 1.232h-3a.557.557 0 0 1-.57-.573v-5.375h-.002zM14.13 18.434c.208-1.827 2.863-2.155 4.114-1.157.617.516-.036 1.336-.58.921-.671-.441-2.194-.648-2.384.329-.245 1.544 3.697.66 3.634 3.164-.064 2.39-3.398 2.446-4.65 1.373-.3-.254-.29-.667-.127-.922.236-.244.498-.329.807-.065.743.526 2.656.922 2.791-.416-.117-1.39-3.887-.554-3.606-3.227z"/>
        </g>
    </g>
</svg>
