<svg xmlns="http://www.w3.org/2000/svg" width="17" height="17" viewBox="0 0 17 17">
    <g fill="none" fill-rule="nonzero">
        <path fill="#0CE80E" d="M8.5 0C3.813 0 0 3.813 0 8.5 0 13.187 3.813 17 8.5 17c4.687 0 8.5-3.813 8.5-8.5C17 3.813 13.187 0 8.5 0z"/>
        <path fill="#636363" d="M6.652 7.022a1.11 1.11 0 0 0-1.109-1.109 1.11 1.11 0 0 0-1.108 1.109A1.11 1.11 0 0 0 5.543 8.13a1.11 1.11 0 0 0 1.11-1.108zm-1.478 0a.37.37 0 1 1 .74.001.37.37 0 0 1-.74-.001zM11.457 5.913a1.11 1.11 0 0 0-1.11 1.109 1.11 1.11 0 0 0 1.11 1.108 1.11 1.11 0 0 0 1.108-1.108 1.11 1.11 0 0 0-1.108-1.109zm0 1.478a.37.37 0 1 1 0-.74.37.37 0 0 1 0 .74zM8.5 12.565a4.835 4.835 0 0 1-3.601-1.601.37.37 0 0 1 .55-.493A4.094 4.094 0 0 0 8.5 11.826c1.168 0 2.28-.494 3.05-1.355a.368.368 0 0 1 .523-.029.37.37 0 0 1 .028.522A4.835 4.835 0 0 1 8.5 12.565z"/>
    </g>
</svg>
