<svg xmlns="http://www.w3.org/2000/svg" width="11" height="14" viewBox="0 0 11 14">
    <g fill="#65656D" fill-rule="nonzero">
        <path d="M5.107 6.524c1.483 0 2.686-1.46 2.686-3.262S7.398 0 5.107 0c-2.29 0-2.685 1.46-2.685 3.262s1.202 3.262 2.685 3.262zM.066 11.548c-.001-.195-.002-.055 0 0zM10.21 11.59c.004-.03.001-.209 0 0z"/>
        <path d="M10.174 11.373c-.05-3.138-.46-4.033-3.596-4.599 0 0-.442.563-1.47.563-1.03 0-1.472-.563-1.472-.563C.534 7.334.1 8.215.042 11.271c-.004.25-.007.262-.007.234v.33s.747 1.505 5.072 1.505 5.072-1.506 5.072-1.506v-.244a2.02 2.02 0 0 1-.005-.217z"/>
    </g>
</svg>
