<svg xmlns="http://www.w3.org/2000/svg" width="55" height="54" viewBox="0 0 55 54">
    <g fill="none" fill-rule="evenodd">
        <rect width="53" height="53" x=".5" y=".5" stroke="#2A388F" rx="26.5"/>
        <g fill="#2A388F" fill-rule="nonzero">
            <path d="M21.654 29.69l-.73 2.73-2.673.056A10.453 10.453 0 0 1 17 27.5c0-1.741.423-3.383 1.174-4.829l2.38.436 1.041 2.365a6.241 6.241 0 0 0-.337 2.028c0 .77.14 1.51.396 2.19zM37.817 25.538c.12.636.183 1.292.183 1.962a10.498 10.498 0 0 1-3.927 8.188l-2.996-.153-.424-2.647a6.258 6.258 0 0 0 2.692-3.196h-5.614v-4.154H37.817z"/>
            <path d="M34.073 35.688A10.456 10.456 0 0 1 27.5 38a10.498 10.498 0 0 1-9.249-5.524l3.403-2.785a6.243 6.243 0 0 0 8.999 3.197l3.42 2.8zM34.202 19.417l-3.401 2.785a6.245 6.245 0 0 0-9.205 3.27l-3.421-2.8h-.001A10.498 10.498 0 0 1 27.5 17c2.548 0 4.884.908 6.702 2.417z"/>
        </g>
        <g transform="translate(38)">
            <circle cx="8.5" cy="8.5" r="8.5" fill="#00EF8D"/>
            <path fill="#FFF" d="M7.462 12.214L4 8.752l.976-.976 2.486 2.479L12.716 5l.976.983z"/>
        </g>
    </g>
</svg>
