<svg xmlns="http://www.w3.org/2000/svg" width="55" height="54" viewBox="0 0 55 54">
    <g fill="none" fill-rule="evenodd">
        <rect width="53" height="53" x=".5" y=".5" fill="#FFF" stroke="#2A388F" rx="26.5"/>
        <g transform="translate(38)">
            <circle cx="8.5" cy="8.5" r="8.5" fill="#00EF8D"/>
            <path fill="#FFF" d="M7.462 12.214L4 8.752l.976-.976 2.486 2.479L12.716 5l.976.983z"/>
        </g>
        <path fill="#2A388F" fill-rule="nonzero" d="M40 18.5c-.967.425-1.997.706-3.071.843a5.3 5.3 0 0 0 2.345-2.946 10.652 10.652 0 0 1-3.38 1.29 5.329 5.329 0 0 0-9.22 3.645c0 .422.035.828.123 1.215-4.432-.216-8.353-2.34-10.987-5.575a5.366 5.366 0 0 0-.73 2.694c0 1.846.951 3.482 2.368 4.43a5.264 5.264 0 0 1-2.408-.657v.059a5.355 5.355 0 0 0 4.27 5.237 5.32 5.32 0 0 1-1.397.176c-.341 0-.686-.02-1.01-.091.691 2.11 2.651 3.662 4.981 3.713a10.71 10.71 0 0 1-6.608 2.273c-.438 0-.857-.02-1.276-.073a15.006 15.006 0 0 0 8.177 2.392c9.808 0 15.171-8.125 15.171-15.168 0-.235-.008-.463-.02-.689A10.633 10.633 0 0 0 40 18.501z"/>
    </g>
</svg>
