<svg xmlns="http://www.w3.org/2000/svg" width="54" height="54" viewBox="0 0 54 54">
    <g fill="none" fill-rule="evenodd">
        <rect width="53" height="53" x=".5" y=".5" stroke="#65656D" opacity=".2" rx="26.5"/>
        <g fill-rule="nonzero">
            <path fill="#65656D" d="M39.852 19.789c-.732-1.303-1.527-1.543-3.145-1.634-1.617-.11-5.682-.155-9.204-.155-3.528 0-7.595.046-9.21.154-1.615.092-2.411.33-3.15 1.635-.755 1.3-1.143 3.542-1.143 7.487v.014c0 3.928.388 6.186 1.142 7.474.74 1.302 1.534 1.539 3.15 1.648 1.616.095 5.683.15 9.211.15 3.522 0 7.587-.055 9.206-.148 1.618-.11 2.413-.346 3.145-1.649C40.615 33.478 41 31.22 41 27.291v-.008-.005c0-3.947-.385-6.188-1.148-7.49z"/>
            <path fill="#FFF" d="M24.125 32.344V22.219l8.438 5.062z"/>
        </g>
    </g>
</svg>
