<?xml version="1.0" encoding="UTF-8"?>
<svg width="102px" height="98px" viewBox="0 0 102 98" version="1.1" xmlns="http://www.w3.org/2000/svg" xmlns:xlink="http://www.w3.org/1999/xlink">
    <!-- Generator: Sketch 55.2 (78181) - https://sketchapp.com -->
    <title>level 5</title>
    <desc>Created with Sketch.</desc>
    <defs>
        <path d="M51.296004,101 C23.4056241,101 0.796003996,78.3903799 0.796003996,50.5 C0.796003996,22.6096201 23.4056241,0 51.296004,0 C79.1863839,0 101.796004,22.6096201 101.796004,50.5 C101.796004,78.3903799 79.1863839,101 51.296004,101 Z M51.448572,94.2870091 C75.5472084,94.2870091 95.0830131,74.7512044 95.0830131,50.652568 C95.0830131,26.5539316 75.5472084,7.01812689 51.448572,7.01812689 C27.3499356,7.01812689 7.81413088,26.5539316 7.81413088,50.652568 C7.81413088,74.7512044 27.3499356,94.2870091 51.448572,94.2870091 Z" id="path-1"></path>
    </defs>
    <g id="Profile" stroke="none" stroke-width="1" fill="none" fill-rule="evenodd">
        <g id="levels" transform="translate(-646.000000, -25.000000)">
            <g id="level-5" transform="translate(646.000000, 25.000000)">
                <mask id="mask-2" fill="white">
                    <use xlink:href="#path-1"></use>
                </mask>
                <g id="Mask"></g>
                <g id="level-8" mask="url(#mask-2)">
                    <g transform="translate(-1.000000, 0.000000)" id="Group">
                        <g>
                            <path d="M85.411639,12.5241096 C93.798519,19.8956434 99.7151423,30.0105287 101.759219,41.4664759 L52.1701701,50.3741661 L85.2185965,12.3563003 L85.411639,12.5241096 Z" id="Combined-Shape" fill="#E6E9FA"></path>
                            <path d="M52.1701701,4.90373586e-31 C64.1259599,1.65023248e-15 75.1089406,4.16509064 83.7472563,11.1234159 L52.1701701,50.3741661 L52.1701701,0 Z" id="Combined-Shape" fill="#5D6AB8"></path>
                            <path d="M34.1902104,12.5241096 C42.5770904,19.8956434 48.4937137,30.0105287 50.5377908,41.4664759 L0.948741488,50.3741661 L33.997168,12.3563003 L34.1902104,12.5241096 Z" id="Combined-Shape" fill="#808CD4" transform="translate(25.743266, 31.365233) scale(-1, 1) translate(-25.743266, -31.365233) "></path>
                            <path d="M18.9844558,0 C30.9402456,0 41.9232263,4.16509064 50.561542,11.1234159 L18.9844558,50.3741661 L18.9844558,0 Z" id="Combined-Shape" fill="#727EC9" transform="translate(34.772999, 25.187083) scale(-1, 1) translate(-34.772999, -25.187083) "></path>
                            <path d="M43.8173453,44.5301402 C48.0918552,51.9321845 50.5377908,60.522869 50.5377908,69.6848323 C50.5377908,72.008882 50.3804075,74.2961727 50.0757173,76.5366281 L0.163624735,69.6848323 L43.3427127,43.7402188 L43.8173453,44.5301402 Z" id="Combined-Shape" fill="#9EA9ED" transform="translate(25.350708, 60.138423) scale(-1, -1) translate(-25.350708, -60.138423) "></path>
                            <path d="M21.997944,52.9443293 C31.6680016,56.793875 39.864359,63.552498 45.506194,72.1393761 L8.4309249,97.3200493 L21.997944,52.9443293 Z" id="Combined-Shape" fill="#B4BEFE" transform="translate(26.968559, 75.132189) scale(-1, -1) translate(-26.968559, -75.132189) "></path>
                            <path d="M96.481631,44.5301402 C100.756141,51.9321845 103.202077,60.522869 103.202077,69.6848323 C103.202077,72.008882 103.044693,74.2961727 102.740003,76.5366281 L52.8279104,69.6848323 L96.0069984,43.7402188 L96.481631,44.5301402 Z" id="Combined-Shape" fill="#E6E9FA" transform="translate(78.014993, 60.138423) scale(1, -1) translate(-78.014993, -60.138423) "></path>
                            <path d="M71.0550869,52.9443293 C80.7251445,56.793875 88.9215018,63.552498 94.5633369,72.1393761 L57.4880678,97.3200493 L71.0550869,52.9443293 Z" id="Combined-Shape" fill="#E6E9FA" transform="translate(76.025702, 75.132189) scale(1, -1) translate(-76.025702, -75.132189) "></path>
                        </g>
                    </g>
                </g>
            </g>
        </g>
    </g>
</svg>