<svg xmlns="http://www.w3.org/2000/svg" width="15" height="15" viewBox="0 0 15 15">
    <defs>
        <linearGradient id="a" x1="6.714%" x2="93.608%" y1="93.485%" y2="6.619%">
            <stop offset="0%" stop-color="#FD5"/>
            <stop offset="50%" stop-color="#FF543E"/>
            <stop offset="100%" stop-color="#C837AB"/>
        </linearGradient>
    </defs>
    <g fill="none" fill-rule="nonzero">
        <path fill="url(#a)" d="M7.482 0a7.483 7.483 0 1 1 0 14.965A7.483 7.483 0 0 1 7.482 0z"/>
        <path fill="#FFF" d="M7.508 3.004c-1.846 0-3.6-.164-4.27 1.555-.276.71-.236 1.632-.236 2.952 0 1.159-.037 2.247.237 2.952.668 1.72 2.435 1.555 4.268 1.555 1.769 0 3.592.184 4.27-1.555.277-.717.236-1.626.236-2.952 0-1.76.097-2.897-.757-3.75-.864-.865-2.033-.757-3.75-.757h.002zm-.403.813c3.851-.007 4.342-.435 4.071 5.514-.096 2.104-1.698 1.873-3.667 1.873-3.59 0-3.694-.103-3.694-3.695 0-3.633.285-3.69 3.29-3.694v.002zm2.809.748a.54.54 0 1 0 0 1.08.54.54 0 0 0 0-1.08zm-2.406.632a2.314 2.314 0 1 0 .001 4.628 2.314 2.314 0 0 0 0-4.628zm0 .812c1.986 0 1.989 3.004 0 3.004-1.985 0-1.988-3.004 0-3.004z"/>
    </g>
</svg>
