<svg xmlns="http://www.w3.org/2000/svg" width="15" height="15" viewBox="0 0 15 15">
    <g fill="none" fill-rule="nonzero">
        <path fill="#26A6D1" d="M7.482 0a7.483 7.483 0 1 1 0 14.965A7.483 7.483 0 0 1 7.482 0z"/>
        <path fill="#FFF" d="M12.16 5.04a3.726 3.726 0 0 1-1.047.28c.377-.22.666-.566.802-.98-.353.204-.743.351-1.158.43a1.847 1.847 0 0 0-1.331-.558c-1.007 0-1.823.791-1.823 1.769 0 .139.016.274.047.403a5.23 5.23 0 0 1-3.758-1.849 1.719 1.719 0 0 0-.247.89c0 .613.322 1.156.81 1.472-.298-.009-.579-.088-.825-.221v.022c0 .858.628 1.573 1.462 1.736a1.886 1.886 0 0 1-.823.03 1.819 1.819 0 0 0 1.704 1.23 3.728 3.728 0 0 1-2.7.732 5.277 5.277 0 0 0 2.795.795c3.354 0 5.189-2.697 5.189-5.035l-.006-.23c.356-.248.665-.56.91-.915z"/>
    </g>
</svg>
