<svg xmlns="http://www.w3.org/2000/svg" width="16" height="16" viewBox="0 0 16 16">
    <path fill="#2A388F" fill-rule="nonzero" d="M15.505 10.86c.336-.418.498-.866.477-1.327a2.006 2.006 0 0 0-.446-1.149c.223-.541.309-1.393-.436-2.054-.546-.484-1.473-.702-2.758-.641-.903.04-1.658.203-1.689.21h-.003c-.172.03-.354.067-.54.107-.013-.214.025-.745.43-1.94.48-1.424.453-2.513-.09-3.24C9.88.06 8.97 0 8.704 0a.873.873 0 0 0-.663.294c-.38.43-.336 1.226-.288 1.593C7.299 3.07 6.028 5.97 4.954 6.774c-.021.013-.038.03-.055.047a3.582 3.582 0 0 0-.673.982 1.448 1.448 0 0 0-.68-.167H1.452c-.79 0-1.429.625-1.429 1.39v5.427c0 .769.642 1.39 1.429 1.39h2.094c.306 0 .59-.094.824-.254l.807.094a35.52 35.52 0 0 0 4.577.244c.408.03.793.046 1.15.046.614 0 1.15-.046 1.596-.14 1.051-.217 1.769-.651 2.133-1.29.278-.487.278-.971.233-1.279.683-.601.804-1.266.78-1.733a2.204 2.204 0 0 0-.141-.672zM1.452 14.94a.495.495 0 0 1-.502-.488v-5.43c0-.271.227-.489.502-.489h2.094c.278 0 .501.22.501.488v5.428c0 .27-.226.488-.501.488H1.452v.003zm13.174-4.473a.44.44 0 0 0-.062.545c0 .003.14.237.158.558.024.437-.192.825-.646 1.156a.448.448 0 0 0-.158.514c0 .003.148.444-.092.862-.23.4-.742.688-1.518.848-.621.13-1.466.154-2.503.074h-.048c-2.208.046-4.44-.234-4.463-.238H5.29l-.347-.04c.02-.093.031-.193.031-.294v-5.43c0-.145-.024-.285-.065-.415.062-.224.233-.722.639-1.146 1.541-1.189 3.049-5.2 3.114-5.374a.412.412 0 0 0 .02-.224c-.058-.374-.037-.832.045-.969.182.004.673.054.968.451.35.471.337 1.313-.04 2.429-.578 1.7-.626 2.595-.17 2.99a.765.765 0 0 0 .75.13c.209-.047.408-.087.597-.118l.044-.01c1.054-.223 2.943-.36 3.599.22.556.495.161 1.15.116 1.22a.438.438 0 0 0 .083.581c.003.004.364.334.38.779.015.297-.13.6-.428.901z" opacity=".55"/>
</svg>
