<svg xmlns="http://www.w3.org/2000/svg" width="67" height="66" viewBox="0 0 67 66">
    <g fill="none" fill-rule="evenodd">
        <rect width="59" height="58.192" y="7.404" fill="#F5F8FF" rx="8"/>
        <path fill="#4250AB" fill-rule="nonzero" d="M40.154 25.78h-15.66c-.582 0-1.051.47-1.051 1.05v9.04h4.043c.404 0 .787.184 1.04.501l1.68 2.109c.252.317.635.5 1.04.5h9.958V26.83c0-.58-.47-1.05-1.05-1.05z"/>
        <path fill="#6876D1" fill-rule="nonzero" d="M35.301 23.616h-15.66c-.58 0-1.05.471-1.05 1.052V35.87h8.895c.404 0 .787.184 1.04.501l1.68 2.109c.252.317.635.5 1.04.5h5.106V24.668c0-.58-.47-1.05-1.05-1.05z"/>
        <path fill="#4250AB" fill-rule="nonzero" d="M33.878 26.752H21.044a.174.174 0 0 0 0 .347h12.834a.173.173 0 1 0 0-.347zM33.878 29.251H21.044a.174.174 0 0 0 0 .347h12.834a.173.173 0 1 0 0-.347zM33.878 31.75H21.044a.174.174 0 0 0 0 .347h12.834a.173.173 0 1 0 0-.347zM33.878 34.25H21.044a.174.174 0 0 0 0 .346h12.834a.173.173 0 1 0 0-.347z"/>
        <path fill="#D9E1F7" fill-rule="nonzero" d="M41.44 38.98H31.247a1.33 1.33 0 0 1-1.04-.5l-1.68-2.109a1.33 1.33 0 0 0-1.04-.5h-9.15a1.33 1.33 0 0 0-1.33 1.33v10.817c0 .735.596 1.33 1.33 1.33h23.105a1.33 1.33 0 0 0 1.33-1.33v-7.707a1.33 1.33 0 0 0-1.33-1.33z"/>
        <path fill="#B6C5EE" fill-rule="nonzero" d="M41.441 39.154h-1.658c.638 0 1.156.52 1.156 1.157v7.707c0 .639-.518 1.157-1.156 1.157h1.658c.638 0 1.156-.518 1.156-1.157v-7.707c0-.637-.518-1.157-1.156-1.157z"/>
        <path fill="#FFDC64" fill-rule="nonzero" d="M66.465 7.22l-6.789-.629L56.98.329a.544.544 0 0 0-1 0L53.283 6.59l-6.788.63a.544.544 0 0 0-.31.95l5.123 4.5-1.5 6.651a.544.544 0 0 0 .81.588l5.862-3.481 5.862 3.48a.544.544 0 0 0 .809-.587l-1.5-6.651 5.123-4.5a.544.544 0 0 0-.309-.95z"/>
    </g>
</svg>
