<svg xmlns="http://www.w3.org/2000/svg" width="62" height="62" viewBox="0 0 62 62">
    <g fill="none" fill-rule="evenodd">
        <rect width="59" height="58.192" y="3.404" fill="#F5F8FF" rx="8"/>
        <path fill="#4250AB" fill-rule="nonzero" d="M40.154 21.78h-15.66c-.582 0-1.051.47-1.051 1.05v9.04h4.043c.404 0 .787.184 1.04.501l1.68 2.109c.252.317.635.5 1.04.5h9.958V22.83c0-.58-.47-1.05-1.05-1.05z"/>
        <path fill="#6876D1" fill-rule="nonzero" d="M35.301 19.616h-15.66c-.58 0-1.05.471-1.05 1.052V31.87h8.895c.404 0 .787.184 1.04.501l1.68 2.109c.252.317.635.5 1.04.5h5.106V20.668c0-.58-.47-1.05-1.05-1.05z"/>
        <path fill="#4250AB" fill-rule="nonzero" d="M33.878 22.752H21.044a.174.174 0 0 0 0 .347h12.834a.173.173 0 1 0 0-.347zM33.878 25.251H21.044a.174.174 0 0 0 0 .347h12.834a.173.173 0 1 0 0-.347zM33.878 27.75H21.044a.174.174 0 0 0 0 .347h12.834a.173.173 0 1 0 0-.347zM33.878 30.25H21.044a.174.174 0 0 0 0 .346h12.834a.173.173 0 1 0 0-.347z"/>
        <path fill="#D9E1F7" fill-rule="nonzero" d="M41.44 34.98H31.247a1.33 1.33 0 0 1-1.04-.5l-1.68-2.109a1.33 1.33 0 0 0-1.04-.5h-9.15a1.33 1.33 0 0 0-1.33 1.33v10.817c0 .735.596 1.33 1.33 1.33h23.105a1.33 1.33 0 0 0 1.33-1.33v-7.707a1.33 1.33 0 0 0-1.33-1.33z"/>
        <path fill="#B6C5EE" fill-rule="nonzero" d="M41.441 35.154h-1.658c.638 0 1.156.52 1.156 1.157v7.707c0 .639-.518 1.157-1.156 1.157h1.658c.638 0 1.156-.518 1.156-1.157v-7.707c0-.637-.518-1.157-1.156-1.157z"/>
        <circle cx="56" cy="6" r="6" fill="#EA4A6A"/>
    </g>
</svg>
