<svg xmlns="http://www.w3.org/2000/svg" width="15" height="16" viewBox="0 0 15 16">
    <path fill="#FFF" fill-rule="nonzero" d="M12.126 10.28c-.913 0-1.728.438-2.249 1.115L5.516 8.94a2.89 2.89 0 0 0-.004-1.89l4.359-2.452a2.827 2.827 0 0 0 2.252 1.123c1.562 0 2.838-1.282 2.838-2.86C14.961 1.281 13.69 0 12.123 0S9.284 1.282 9.284 2.86c0 .333.056.652.162.947L5.09 6.26A2.817 2.817 0 0 0 2.84 5.136C1.276 5.136 0 6.42 0 7.996c0 1.579 1.276 2.861 2.842 2.861.916 0 1.734-.442 2.255-1.126l4.358 2.455a2.867 2.867 0 0 0-.164.954c0 1.574 1.272 2.86 2.838 2.86s2.839-1.282 2.839-2.86c0-1.579-1.276-2.86-2.842-2.86zm0-9.38c1.075 0 1.948.88 1.948 1.964a1.958 1.958 0 0 1-1.948 1.963 1.958 1.958 0 0 1-1.949-1.963A1.96 1.96 0 0 1 12.126.9zM2.842 9.96A1.958 1.958 0 0 1 .893 7.997c0-1.083.874-1.964 1.949-1.964 1.075 0 1.948.88 1.948 1.964A1.96 1.96 0 0 1 2.842 9.96zm9.284 5.14a1.958 1.958 0 0 1-1.949-1.964c0-1.083.874-1.963 1.949-1.963 1.075 0 1.948.88 1.948 1.963a1.958 1.958 0 0 1-1.948 1.964z"/>
</svg>
