<svg xmlns="http://www.w3.org/2000/svg" xmlns:xlink="http://www.w3.org/1999/xlink" width="37" height="37" viewBox="0 0 37 37">
    <defs>
        <circle id="a" cx="18.417" cy="18.417" r="18.417"/>
    </defs>
    <g fill="none" fill-rule="evenodd">
        <mask id="b" fill="#fff">
            <use xlink:href="#a"/>
        </mask>
        <use fill="#DDDFEA" fill-rule="nonzero" xlink:href="#a"/>
        <path fill="#F5F8FB" fill-rule="nonzero" d="M24.805 30.137h-.004a10.35 10.35 0 0 0-1.258-.814c-.012-.007-.023-.015-.038-.018a6.754 6.754 0 0 1-3.495-5.92l-3.156-.015a6.754 6.754 0 0 1-3.526 5.934s-.004 0-.008.004a10.654 10.654 0 0 0-5.58 9.382h21.353a10.65 10.65 0 0 0-4.288-8.553z" mask="url(#b)"/>
        <path fill="#CBD2E4" fill-rule="nonzero" d="M29.093 38.69H7.74a10.654 10.654 0 0 1 5.58-9.383c.004-.004.008-.004.008-.004.343-.19.672-.407.974-.653a5.741 5.741 0 0 0 4.124 1.736c1.613 0 3.07-.664 4.116-1.733.298.247.624.463.963.65a10.35 10.35 0 0 1 1.296.833h.004a10.65 10.65 0 0 1 4.288 8.553z" mask="url(#b)"/>
        <path fill="#F5F8FB" fill-rule="nonzero" d="M10.222 7.457v8.386c0 5.672 4.98 10.27 8.195 10.27 3.214 0 8.194-4.598 8.194-10.27V7.457H10.222z" mask="url(#b)"/>
        <path fill="#BCC5D9" fill-rule="nonzero" d="M25.276 5.913c-1.786-2.236-4.497-3.666-7.53-3.666-5.387 0-9.75 4.498-9.75 10.043 0 2.944 1.226 5.59 3.185 7.426a11.312 11.312 0 0 1-.786-4.185c0-2.41.732-4.616 1.949-6.313 1.291.574 3.384.782 5.68.465 2.275-.311 4.214-1.063 5.308-1.959 1.994 1.761 3.29 4.601 3.29 7.807 0 1.642-.337 3.186-.94 4.541 1.924-.796 3.34-3.636 3.34-7.015 0-3.616-1.624-6.6-3.746-7.144z" mask="url(#b)"/>
    </g>
</svg>
