<svg xmlns="http://www.w3.org/2000/svg" width="27" height="27" viewBox="0 0 27 27">
    <g fill="none" fill-rule="evenodd">
        <circle cx="13.5" cy="13.5" r="13.5" fill="#2A388F"/>
        <path fill="#FFF" fill-rule="nonzero" d="M19.14 7.84a2.863 2.863 0 0 0-4.051 0l-7.43 7.428a.372.372 0 0 0-.105.213l-.55 4.077a.37.37 0 0 0 .105.312c.069.07.166.11.262.11.017 0 .034 0 .05-.002l2.456-.332a.374.374 0 1 0-.1-.741l-1.968.265.384-2.843 2.993 2.993a.366.366 0 0 0 .526 0l7.429-7.427c.542-.542.84-1.261.84-2.027 0-.767-.298-1.486-.84-2.025zm-3.908.914L16.48 10l-6.78 6.78-1.247-1.248 6.78-6.78zm-3.78 9.775l-1.22-1.22 6.779-6.78 1.22 1.22-6.78 6.78zm7.299-7.314l-2.985-2.984a2.113 2.113 0 0 1 1.35-.484 2.114 2.114 0 0 1 2.119 2.119c0 .5-.172.97-.484 1.35z"/>
    </g>
</svg>
