<svg xmlns="http://www.w3.org/2000/svg" width="16" height="19" viewBox="0 0 16 19">
    <g fill="none" fill-rule="nonzero">
        <path fill="#E95454" d="M4.142 8.157l-4.12 7.762 3.741-.345 1.811 3.292 4.12-7.762z"/>
        <g fill="#ED6362">
            <path d="M4.614 16.606c.116-.249-.005-.545-.247-.674l-.237-.126a.508.508 0 0 1 .487-.889l.67.356c.208.11.467.03.574-.178l.016-.032a.4.4 0 0 0-.154-.564L3.72 13.435c-.244-.13-.364-.425-.25-.674a.508.508 0 0 1 .698-.234l1.86.987c.207.11.466.03.576-.177l.01-.027.003-.006a.445.445 0 0 0-.183-.605l-1.043-.554c-.244-.13-.364-.425-.248-.677a.51.51 0 0 1 .698-.233l1.152.611a.43.43 0 0 0 .584-.198l.003-.006.003-.006a.43.43 0 0 0-.163-.594l-1.243-.66c-.241-.128-.361-.423-.247-.672a.508.508 0 0 1 .698-.234l3.066 1.628-4.12 7.762-1.135-2.064a.483.483 0 0 0 .176-.196z"/>
            <path d="M11.85 8.157l4.12 7.762-3.742-.345-1.811 3.292-4.12-7.762z"/>
        </g>
        <path fill="#E95454" d="M11.377 16.606c-.115-.249.006-.545.247-.674l.238-.126a.508.508 0 0 0-.488-.889l-.67.356a.423.423 0 0 1-.574-.178l-.016-.032a.4.4 0 0 1 .154-.564l2.005-1.064c.244-.13.364-.426.25-.675a.508.508 0 0 0-.699-.233l-1.859.987a.428.428 0 0 1-.576-.177l-.01-.027-.004-.006a.445.445 0 0 1 .184-.606l1.043-.553c.244-.13.364-.426.248-.677a.51.51 0 0 0-.698-.234l-1.154.613a.43.43 0 0 1-.584-.198l-.003-.006-.003-.006a.43.43 0 0 1 .164-.595l1.243-.66c.241-.127.36-.423.247-.672a.508.508 0 0 0-.699-.233l-3.066 1.627 4.12 7.763 1.136-2.064a.491.491 0 0 1-.176-.197z"/>
        <circle cx="7.996" cy="6.884" r="6.884" fill="#FFCC5B"/>
        <path fill="#FDBC4B" d="M8.93 6.094H4.566a.62.62 0 0 1-.618-.617l.005-.043v-.009a.645.645 0 0 1 .646-.65h3.023c.4 0 .755-.297.778-.698a.74.74 0 0 0-.735-.774H4.463c-.353 0-.618-.296-.613-.65v-.01-.01c-.005-.353.259-.65.613-.65h3.351c.396 0 .75-.297.774-.693a.737.737 0 0 0-.736-.773H5.398a6.884 6.884 0 1 0 0 12.733h3.117c.395 0 .75-.297.773-.693a.736.736 0 0 0-.736-.773H5.007a.733.733 0 0 1-.732-.774c.02-.396.377-.694.774-.694h1.374a.735.735 0 0 0-.021-1.469H4.318a.613.613 0 0 1-.612-.617v-.052a.58.58 0 0 1 .58-.618h4.6c.401 0 .755-.296.779-.693a.737.737 0 0 0-.736-.773z"/>
        <path fill="#FFDB70" d="M7.996 11.798A4.92 4.92 0 0 1 3.08 6.884 4.92 4.92 0 0 1 7.996 1.97a4.92 4.92 0 0 1 4.914 4.914 4.92 4.92 0 0 1-4.914 4.914z"/>
        <path fill="#FFF" d="M12.91 6.884a4.916 4.916 0 0 0-4.632-4.9H7.82c-.302 0-.572.227-.59.529-.014.323.24.59.56.59h2.705a.56.56 0 0 1 .558.59c-.016.303-.287.53-.59.53H9.415a.561.561 0 0 0 .016 1.12h1.589c.259 0 .47.212.467.47v.04a.442.442 0 0 1-.442.47h-3.51c-.305 0-.575.227-.593.529-.014.323.24.59.561.59h3.327c.259 0 .47.212.47.47l-.003.033v.007a.492.492 0 0 1-.493.496H8.498c-.305 0-.575.227-.593.532-.014.32.24.59.56.59h2.443c.27 0 .471.226.467.496v.014a.475.475 0 0 1-.467.496H8.352c-.302 0-.571.227-.59.529-.014.324.241.59.562.59h.674a4.922 4.922 0 0 0 3.912-4.81z" opacity=".2"/>
        <path fill="#EC9922" d="M11.426 5.796h-2.39l-.739-2.273a.317.317 0 0 0-.603 0l-.739 2.273h-2.39a.317.317 0 0 0-.186.574l1.933 1.405-.738 2.273a.317.317 0 0 0 .488.355l1.934-1.405 1.933 1.405a.317.317 0 0 0 .489-.355l-.739-2.273 1.934-1.405a.317.317 0 0 0-.187-.574z"/>
    </g>
</svg>
