<svg xmlns="http://www.w3.org/2000/svg" width="21" height="21" viewBox="0 0 21 21">
    <path fill="#83838B" fill-rule="nonzero" d="M20.317 19.116l-4.995-5.195a8.446 8.446 0 0 0 1.988-5.447C17.31 3.8 13.509 0 8.836 0 4.164 0 .363 3.801.363 8.474c0 4.672 3.8 8.473 8.473 8.473 1.754 0 3.426-.529 4.855-1.533l5.033 5.235c.21.218.493.338.796.338a1.107 1.107 0 0 0 .797-1.871zM8.837 2.211a6.27 6.27 0 0 1 6.262 6.263 6.27 6.27 0 0 1-6.263 6.263 6.27 6.27 0 0 1-6.263-6.263A6.27 6.27 0 0 1 8.836 2.21z"/>
</svg>
