<svg xmlns="http://www.w3.org/2000/svg" width="100" height="142" viewBox="0 0 100 142">
    <g fill="none" fill-rule="nonzero">
        <path fill="#EBF0FF" d="M91.519 95.476c0 25.245-20.467 45.71-45.71 45.71a45.546 45.546 0 0 1-17.482-3.463C13.61 131.626 2.77 118.063.53 101.759a45.706 45.706 0 0 1-.43-6.283c0-25.246 20.464-45.71 45.71-45.71 25.243 0 45.71 20.464 45.71 45.71z"/>
        <path fill="#DEE7FF" d="M45.808 49.766c-2.417 0-4.79.189-7.104.55 21.87 3.413 38.607 22.33 38.607 45.16 0 22.827-16.735 41.744-38.604 45.159 2.314.36 4.685.55 7.1.55 25.245 0 45.712-20.464 45.712-45.709 0-25.246-20.467-45.71-45.71-45.71z"/>
        <path fill="#FDD7BD" d="M97.225 92.097l-26.101 17.284a8.89 8.89 0 0 1-6.314 1.37 8.919 8.919 0 0 0-6.33 1.364l-3.493 2.315-19.562-28.836 4.8-20.734a21.646 21.646 0 0 0-3.04-16.829 5.157 5.157 0 0 1-.86-2.853c0-1.676.814-3.321 2.318-4.317a5.17 5.17 0 0 1 6.456.599l3.11 3.011a33.231 33.231 0 0 1 8.02 12.297l1.687 4.539 17.363-11.472a5.92 5.92 0 0 1 8.295 1.807c1.707 2.736.83 6.351-1.86 8.132-.032.022-.035.057-.024.083.015.029.048.048.084.032a5.891 5.891 0 0 1 2.116-.392c1.137 0 2.263.328 3.226.95.664.43 1.252 1 1.716 1.701a5.897 5.897 0 0 1 .87 4.418c-.46 2.326-2.15 3.524-2.481 3.75a.128.128 0 0 0-.033.175c0 .002.002.004.004.004a.126.126 0 0 0 .167.033 6.237 6.237 0 0 1 4.776.798c.672.43 1.267.999 1.727 1.695a5.918 5.918 0 0 1-1.67 8.204l-.2.134c-.04.031-.05.08-.03.115a.049.049 0 0 0 .02.022c.031.024.079.026.118-.004 1.695-.578 3.54-.315 5.023.646a6.032 6.032 0 0 1 1.768 1.753 5.922 5.922 0 0 1-1.666 8.206z"/>
        <path fill="#4655CD" d="M55.236 119.903l-11.011 7.292-15.898 10.528C13.61 131.625 2.77 118.065.53 101.759L18.978 89.54l11.23-7.438a2.81 2.81 0 0 1 3.895.795l21.928 33.108a2.813 2.813 0 0 1-.795 3.897z"/>
        <path fill="#2A388F" d="M55.236 119.903l-11.011 7.292-25.247-37.654 11.23-7.438a2.81 2.81 0 0 1 3.895.795l21.928 33.107a2.814 2.814 0 0 1-.795 3.898z"/>
        <g fill="#FAC5AA">
            <path d="M87.116 60.447l-8.685 4.648a2.813 2.813 0 0 1-3.588-.808l6.847-4.43c.015.029.048.048.084.032a5.891 5.891 0 0 1 2.116-.392c1.137 0 2.263.328 3.226.95zM92.135 71.326l-8.496 4.544a2.811 2.811 0 0 1-3.59-.805l6.848-4.431.296-.139a.126.126 0 0 0 .166.033 6.232 6.232 0 0 1 4.776.798zM97.124 82.138l-7.484 4.004a2.816 2.816 0 0 1-3.589-.808l5.932-3.838c.03.024.079.026.117-.005 1.695-.577 3.539-.314 5.024.647z"/>
        </g>
        <path fill="#FFF" d="M34 6.76L39.38.038h15.24L60 6.76 47 22.002l5.288-15.241H47h5.288L47 22.002 41.712 6.761 47 22.002z"/>
        <path fill="#FFE182" d="M52.288 6.76L47 22.003 60 6.761z"/>
        <g fill="#FFCD73">
            <path d="M39.38.037L34 6.76h7.712zM52.288 6.76H60L54.62.038zM52.288 6.76L47 .038 41.712 6.76z"/>
        </g>
        <path fill="#FFAA64" d="M47 .037h-7.62l2.332 6.724z"/>
        <path fill="#FFE182" d="M54.62.037H47l5.288 6.724z"/>
        <path fill="#FFAA64" d="M41.712 6.76L47 22.003l5.288-15.241z"/>
        <path fill="#FF8C5A" d="M34 6.76l13 15.242-5.288-15.241z"/>
        <g>
            <path fill="#FFF" d="M60 20.76l5.38-6.723h15.24L86 20.76 73 36.002l5.288-15.241H73h5.288L73 36.002l-5.288-15.241L73 36.002z"/>
            <path fill="#FFE182" d="M78.288 20.76L73 36.003l13-15.241z"/>
            <g fill="#FFCD73">
                <path d="M65.38 14.037L60 20.76h7.712zM78.288 20.76H86l-5.38-6.723zM78.288 20.76L73 14.038l-5.288 6.724z"/>
            </g>
            <path fill="#FFAA64" d="M73 14.037h-7.62l2.332 6.724z"/>
            <path fill="#FFE182" d="M80.62 14.037H73l5.288 6.724z"/>
            <path fill="#FFAA64" d="M67.712 20.76L73 36.003l5.288-15.241z"/>
            <path fill="#FF8C5A" d="M60 20.76l13 15.242-5.288-15.241z"/>
        </g>
        <g>
            <path fill="#FFF" d="M8 20.76l5.38-6.723h15.24L34 20.76 21 36.002l5.288-15.241H21h5.288L21 36.002l-5.288-15.241L21 36.002z"/>
            <path fill="#FFE182" d="M26.288 20.76L21 36.003l13-15.241z"/>
            <g fill="#FFCD73">
                <path d="M13.38 14.037L8 20.76h7.712zM26.288 20.76H34l-5.38-6.723zM26.288 20.76L21 14.038l-5.288 6.724z"/>
            </g>
            <path fill="#FFAA64" d="M21 14.037h-7.62l2.332 6.724z"/>
            <path fill="#FFE182" d="M28.62 14.037H21l5.288 6.724z"/>
            <path fill="#FFAA64" d="M15.712 20.76L21 36.003l5.288-15.241z"/>
            <path fill="#FF8C5A" d="M8 20.76l13 15.242-5.288-15.241z"/>
        </g>
    </g>
</svg>
