<svg xmlns="http://www.w3.org/2000/svg" width="23" height="21" viewBox="0 0 23 21">
    <path fill="#83838B" fill-rule="evenodd" d="M13.024 1.07a2.214 2.214 0 0 0-3.048 0L.927 10.112l1.02 1.02 1.647-1.645v8.92c0 1.19.965 2.155 2.156 2.155h11.5c1.19 0 2.156-.965 2.156-2.156v-8.92l1.646 1.646 1.02-1.02-9.048-9.042zm-2.961 18.055v-5.031h2.874v5.031h-2.874zm7.906-.719a.719.719 0 0 1-.719.719h-2.875v-6.469h-5.75v6.469H5.75a.719.719 0 0 1-.719-.719V8.05l5.959-5.966a.719.719 0 0 1 1.02 0L17.97 8.05v10.357z"/>
</svg>
