<svg xmlns="http://www.w3.org/2000/svg" width="18" height="23" viewBox="0 0 18 23">
    <g fill="#83838B" fill-rule="nonzero">
        <path stroke="#83838B" stroke-width=".5" d="M17.078 6.453H4.301A2.155 2.155 0 0 1 2.15 4.301c0-1.184.964-2.152 2.152-2.152h12.782a.574.574 0 1 0 0-1.149H4.3A3.306 3.306 0 0 0 1 4.301v14.376a3.306 3.306 0 0 0 3.301 3.301h12.782c.32 0 .574-.259.574-.574V7.028a.58.58 0 0 0-.579-.575zm-.574 14.376H4.3a2.155 2.155 0 0 1-2.152-2.152V6.807c.58.497 1.331.8 2.152.8h12.203v13.222z"/>
        <path d="M4.582 3.778a.662.662 0 0 0-.674.65c0 .357.304.65.674.65h12.652a.662.662 0 0 0 .674-.65.665.665 0 0 0-.674-.65H4.582z"/>
    </g>
</svg>
